<svg xmlns="http://www.w3.org/2000/svg" viewBox="0 0 152.24 107.64" width="152" height="108" role="img" aria-label="SF — The Lock"><title>SF — Kunci SF (The Lock)</title><desc>Huruf S dan F saling mengunci, dipisahkan satu celah.</desc><defs><linearGradient id="sfg" x1="0" y1="1" x2="1" y2="0"><stop offset="0" stop-color="#16a06f"/><stop offset=".34" stop-color="#2f7fe0"/><stop offset=".67" stop-color="#8b5cf6"/><stop offset="1" stop-color="#f0a92a"/></linearGradient><mask id="ilk-lock" maskUnits="userSpaceOnUse" x="-30" y="-30" width="259.424" height="187.64"><rect x="-30" y="-30" width="259.424" height="187.64" fill="#fff"/><g fill="#000" stroke="#000" stroke-width="10.656" stroke-linejoin="round"><path d="M71.784 0 H152.244 L125.604 26.64 H98.424 V92.988 L71.784 107.64 Z" fill="#000"/><path d="M98.424 44.6706 H139.327 L112.687 71.3106 H98.424 Z" fill="#000"/></g></mask></defs><g mask="url(#ilk-lock)"><g transform="translate(-35.28 -28.44) scale(3.6000)"><path d="M29 17 C23 10.5 13.5 10.5 13.5 18 C13.5 24.5 28.5 23.5 28.5 30 C28.5 37 19 38 13.8 32.5" fill="none" stroke="url(#sfg)" stroke-width="7.4" stroke-linecap="butt"/></g></g><path d="M71.784 0 H152.244 L125.604 26.64 H98.424 V92.988 L71.784 107.64 Z" fill="url(#sfg)"/><path d="M98.424 44.6706 H139.327 L112.687 71.3106 H98.424 Z" fill="url(#sfg)"/></svg>
