<svg xmlns="http://www.w3.org/2000/svg" viewBox="0 0 64 64" width="64" height="64" role="img" aria-label="SF — The Rose"><title>SF — Mata Angin (The Rose)</title><desc>Mata angin dengan satu arah yang dipanjangkan.</desc><g fill="none" stroke="currentColor" stroke-width="1" stroke-linecap="round" stroke-linejoin="round"><circle cx="32" cy="32" r="29"/></g><polygon points="35.20,32.00 35.20,27.60 55.50,32.00" fill="currentColor"/><g fill="none" stroke="currentColor" stroke-width="1" stroke-linecap="round" stroke-linejoin="round"><path d="M35.20 32.00 L35.20 36.40 L55.50 32.00 Z"/></g><polygon points="32.00,28.80 27.60,28.80 32.00,8.50" fill="currentColor"/><g fill="none" stroke="currentColor" stroke-width="1" stroke-linecap="round" stroke-linejoin="round"><path d="M32.00 28.80 L36.40 28.80 L32.00 8.50 Z"/></g><polygon points="28.80,32.00 28.80,36.40 8.50,32.00" fill="currentColor"/><g fill="none" stroke="currentColor" stroke-width="1" stroke-linecap="round" stroke-linejoin="round"><path d="M28.80 32.00 L28.80 27.60 L8.50 32.00 Z"/></g><polygon points="32.00,35.20 36.40,35.20 32.00,55.50" fill="currentColor"/><g fill="none" stroke="currentColor" stroke-width="1" stroke-linecap="round" stroke-linejoin="round"><path d="M32.00 35.20 L27.60 35.20 L32.00 55.50 Z"/></g><polygon points="29.74,29.74 27.47,32.00 21.39,21.39" fill="currentColor"/><g fill="none" stroke="currentColor" stroke-width="1" stroke-linecap="round" stroke-linejoin="round"><path d="M29.74 29.74 L32.00 27.47 L21.39 21.39 Z"/></g><polygon points="29.74,34.26 32.00,36.53 21.39,42.61" fill="currentColor"/><g fill="none" stroke="currentColor" stroke-width="1" stroke-linecap="round" stroke-linejoin="round"><path d="M29.74 34.26 L27.47 32.00 L21.39 42.61 Z"/></g><polygon points="34.26,34.26 36.53,32.00 42.61,42.61" fill="currentColor"/><g fill="none" stroke="currentColor" stroke-width="1" stroke-linecap="round" stroke-linejoin="round"><path d="M34.26 34.26 L32.00 36.53 L42.61 42.61 Z"/></g><polygon points="34.26,29.74 31.72,27.19 51.45,12.55" fill="currentColor"/><g fill="none" stroke="currentColor" stroke-width="1" stroke-linecap="round" stroke-linejoin="round"><path d="M34.26 29.74 L36.81 32.28 L51.45 12.55 Z"/></g><g fill="none" stroke="currentColor" stroke-width="1" stroke-linecap="round" stroke-linejoin="round"><circle cx="32" cy="32" r="3.4"/></g></svg>
